# xmcd
#
# Track frame offsets:
#	150
#	10010
#	20080
#	31610
#	43932
#	56915
#	68632
#	79020
#	91002
#	101150
#	110087
#	118750
#	131885
#	145782
#	158882
#	169767
#	182790
#	197382
#	207660
#	216755
#	227902
#	240232
#	250850
#
# Disc length: 3478 seconds
#
# Revision: 2
# Processed by: cddbd v1.5.2PL0 Copyright (c) Steve Scherf et al.
# Submitted via: audiograbber 1.83.01
#
DISCID=410d9417
DTITLE=Various Artist - Louisiana Swamp Blues
DYEAR=1996
DGENRE=Blues
TTITLE0=Guitar Slim and His Band - Cryin' In The Mornin'
TTITLE1=Guitar Slim and His Band - Bad Luck Is On Me (aka Woman Troubles)
TTITLE2=Guitar Slim and His Playboys - New Arrival
TTITLE3=Guitar Slim and His Playboys - Standin' At The Station
TTITLE4=Clarence "Bon Ton" Garlow - New Bon Ton Roulay (aka Bon Ton #2)
TTITLE5=Clarence "Bon Ton" Garlow - Hey Mr. Bon Ton
TTITLE6=Clarence "Bon Ton" Garlow - You Got Me Crying
TTITLE7=Clarence "Bon Ton" Garlow - Dreaming
TTITLE8=Clarence "Bon Ton" Garlow - I'm Hurt
TTITLE9=Clarence "Bon Ton" Garlow - Flip Flop
TTITLE10=Clarence "Bon Ton" Garlow - Jumping At The Zadacoe
TTITLE11=Boo Breeding - I Can't Fly (aka Date With An Angel)
TTITLE12=Boo Breeding - My Love (She's Gone)
TTITLE13=Boo Breeding - Low And Lonesome
TTITLE14=Boo Breeding - Country Woman
TTITLE15=Clifton Chenier - Louisiana Stomp
TTITLE16=Clifton Chenier - Cliston Blues
TTITLE17=Clifton Chenier - Tell Me (aka I'll Be On My Way - aka Just A Lonely Bo
TTITLE17=y)
TTITLE18=Clifton Chenier - Rockin' Hop
TTITLE19=Clifton Chenier - Country Bred
TTITLE20=Clifton Chenier - Rockin' The Bop
TTITLE21=Boo Zoo Chavis - Boo Zoo Stomp
TTITLE22=Boo Zoo Chavis - Paper In My Shoe
EXTD=
EXTT0=
EXTT1=
EXTT2=
EXTT3=
EXTT4=
EXTT5=
EXTT6=
EXTT7=
EXTT8=
EXTT9=
EXTT10=
EXTT11=
EXTT12=
EXTT13=
EXTT14=
EXTT15=
EXTT16=
EXTT17=
EXTT18=
EXTT19=
EXTT20=
EXTT21=
EXTT22=
PLAYORDER=
